<svg t="1640995200000" class="icon" viewBox="0 0 1024 1024" version="1.1" xmlns="http://www.w3.org/2000/svg" p-id="5426" width="128" height="128">
  <path d="M257.7 752c2 0 4-0.2 6-0.5L431.9 722c2-0.4 3.9-1.3 5.3-2.8l423.9-423.9c3.9-3.9 3.9-10.2 0-14.1L694.9 114.9c-1.9-1.9-4.4-2.9-7.1-2.9s-5.2 1-7.1 2.9L256.8 538.8c-1.5 1.5-2.4 3.3-2.8 5.3l-29.5 168.2c-1.9 11.1 1.5 21.9 9.4 29.8 6.6 6.4 15.6 9.9 25.8 9.9z m67.4-174.4L687.8 215 770 297.2l-362.7 362.7-88.7 15.7 15.8-88.0z" fill="currentColor" p-id="5427"></path>
  <path d="M880 836H144c-17.7 0-32 14.3-32 32v56c0 4.4 3.6 8 8 8h784c4.4 0 8-3.6 8-8v-56c0-17.7-14.3-32-32-32z" fill="currentColor" p-id="5428"></path>
</svg>
