<svg t="1640995200000" class="icon" viewBox="0 0 1024 1024" version="1.1" xmlns="http://www.w3.org/2000/svg" p-id="16426" width="128" height="128">
  <path d="M924.8 625.7l-65.5-56c3.1-19 4.7-38.4 4.7-57.8s-1.6-38.8-4.7-57.8l65.5-56c10.1-8.6 13.8-22.6 9.3-35.2l-0.9-2.6c-18.1-50.5-44.9-96.9-79.7-137.9l-1.8-2.1c-8.6-10.1-22.5-13.9-35.1-9.5l-81.3 28.9c-30-24.6-63.5-44-99.7-57.6l-15.7-85c-2.4-13.1-12.7-23.3-25.8-25.7l-2.7-0.5c-52.1-9.4-106.9-9.4-159 0l-2.7 0.5c-13.1 2.4-23.4 12.6-25.8 25.7l-15.8 85.4c-36.2 13.6-69.7 32.9-99.7 57.6l-81.2-28.9c-12.6-4.4-26.5-0.6-35.1 9.5l-1.8 2.1c-34.8 41-61.6 87.5-79.7 137.9l-0.9 2.6c-4.5 12.5-0.8 26.5 9.3 35.2l65.5 56c-3.1 19-4.7 38.4-4.7 57.8s1.6 38.8 4.7 57.8l-65.5 56c-10.1 8.6-13.8 22.6-9.3 35.2l0.9 2.6c18.1 50.4 44.9 96.9 79.7 137.9l1.8 2.1c8.6 10.1 22.5 13.9 35.1 9.5l81.2-28.9c30 24.6 63.5 44 99.7 57.6l15.8 85.4c2.4 13.1 12.7 23.3 25.8 25.7l2.7 0.5c26.1 4.7 52.8 7.1 79.5 7.1 26.7 0 53.5-2.4 79.5-7.1l2.7-0.5c13.1-2.4 23.4-12.6 25.8-25.7l15.7-85c36.2-13.6 69.7-32.9 99.7-57.6l81.2 28.9c12.6 4.4 26.5 0.6 35.1-9.5l1.8-2.1c34.8-41 61.6-87.5 79.7-137.9l0.9-2.6c4.5-12.3 0.8-26.3-9.3-35zM512 754c-137 0-248-111-248-248s111-248 248-248 248 111 248 248-111 248-248 248z" fill="currentColor" p-id="16427"></path>
  <path d="M512 392c-66.2 0-120 53.8-120 120s53.8 120 120 120 120-53.8 120-120-53.8-120-120-120z m0 176c-30.9 0-56-25.1-56-56s25.1-56 56-56 56 25.1 56 56-25.1 56-56 56z" fill="currentColor" p-id="16428"></path>
</svg>
