<svg t="1640995200000" class="icon" viewBox="0 0 1024 1024" version="1.1" xmlns="http://www.w3.org/2000/svg" p-id="12426" width="128" height="128">
  <path d="M678.3 642.4c24.2-13 51.9-20.4 81.4-20.4h0.7c29.6 0 57.3 7.4 81.4 20.4C867.6 654.8 884 682.2 884 712v134c0 4.4-3.6 8-8 8h-55.7c-4.4 0-8-3.6-8-8V712c0-12.9-8.7-24.2-21.2-27.2-12.7-3.1-26.4-3.1-39.1 0-12.5 3.1-21.2 14.3-21.2 27.2v134c0 4.4-3.6 8-8 8H668c-4.4 0-8-3.6-8-8V712c0-29.8 16.4-57.2 42.3-69.6z" fill="currentColor" p-id="12427"></path>
  <path d="M760 560c-69.9 0-126.7-56.3-127-126.2v-0.4c-0.3-69.9 56.1-126.2 126-126.6h1.1c69.9 0 126.7 56.3 127 126.2v0.4c0.3 69.9-56.1 126.2-126 126.6H760z m0-189c-34.5 0-62.7 27.9-63 62.4v0.2c-0.3 34.5 27.5 62.4 62 62.6h0.5c34.5 0 62.7-27.9 63-62.4v-0.2c0.3-34.5-27.5-62.4-62-62.6H760z" fill="currentColor" p-id="12428"></path>
  <path d="M454.2 538.5L457.8 544c52.1 75.5 137.6 121 231.4 121h4.7c93.8 0 179.3-45.4 231.4-121l3.6-5.5c0.9-1.4 0.9-3.3 0-4.8L925.3 528c-52.1-75.5-137.6-121-231.4-121h-4.7c-93.8 0-179.3 45.4-231.4 121l-3.6 5.5c-0.9 1.4-0.9 3.3 0 4.8l3.6 5.5z" fill="currentColor" p-id="12429"></path>
  <path d="M678.3 642.4c24.2-13 51.9-20.4 81.4-20.4h0.7c29.6 0 57.3 7.4 81.4 20.4C867.6 654.8 884 682.2 884 712v134c0 4.4-3.6 8-8 8h-55.7c-4.4 0-8-3.6-8-8V712c0-12.9-8.7-24.2-21.2-27.2-12.7-3.1-26.4-3.1-39.1 0-12.5 3.1-21.2 14.3-21.2 27.2v134c0 4.4-3.6 8-8 8H668c-4.4 0-8-3.6-8-8V712c0-29.8 16.4-57.2 42.3-69.6z" fill="currentColor" p-id="12430"></path>
  <path d="M304 352c79.5 0 144 64.5 144 144s-64.5 144-144 144-144-64.5-144-144 64.5-144 144-144z m0 224c44.2 0 80-35.8 80-80s-35.8-80-80-80-80 35.8-80 80 35.8 80 80 80z" fill="currentColor" p-id="12431"></path>
  <path d="M218.4 768.1C240.4 750.1 267.4 740 296 740h16c28.6 0 55.6 10.1 77.6 28.1 23.8 19.4 37.4 48.7 37.4 80.4V904c0 4.4-3.6 8-8 8H140c-4.4 0-8-3.6-8-8v-55.5c0-31.7 13.6-61 37.4-80.4z" fill="currentColor" p-id="12432"></path>
  <path d="M689 310V184c0-4.4-3.6-8-8-8h-56c-4.4 0-8 3.6-8 8v126H491c-4.4 0-8 3.6-8 8v56c0 4.4 3.6 8 8 8h126v126c0 4.4 3.6 8 8 8h56c4.4 0 8-3.6 8-8V378h126c4.4 0 8-3.6 8-8v-56c0-4.4-3.6-8-8-8H689z" fill="currentColor" p-id="12433"></path>
</svg>
