<svg t="1640995200000" class="icon" viewBox="0 0 1024 1024" version="1.1" xmlns="http://www.w3.org/2000/svg" p-id="15426" width="128" height="128">
  <path d="M824.2 699.9c-19.4-13.2-40.4-22.1-62.5-26.8-6.1-1.3-12.4-2.2-18.7-2.8-0.9-0.1-1.8-0.2-2.7-0.3C783.1 637.8 800 595.8 800 550c0-79.5-64.5-144-144-144s-144 64.5-144 144c0 45.8 16.9 87.8 59.7 120.2-0.9 0.1-1.8 0.2-2.7 0.3-6.3 0.6-12.6 1.5-18.7 2.8-22.1 4.7-43.1 13.6-62.5 26.8C468.4 713.1 456 732.6 456 754v134c0 4.4 3.6 8 8 8h55.1c4.4 0 8-3.6 8-8V754c0-12.9 8.7-24.2 21.2-27.2 12.7-3.1 26.4-3.1 39.1 0 12.5 3.1 21.2 14.3 21.2 27.2v134c0 4.4 3.6 8 8 8H672c4.4 0 8-3.6 8-8V754c0-21.4-12.4-40.9-31.8-54.1z" fill="currentColor" p-id="15427"></path>
  <path d="M656 550c0-44.2 35.8-80 80-80s80 35.8 80 80-35.8 80-80 80-80-35.8-80-80z" fill="currentColor" p-id="15428"></path>
  <path d="M331.2 699.9c-19.4-13.2-40.4-22.1-62.5-26.8-6.1-1.3-12.4-2.2-18.7-2.8-0.9-0.1-1.8-0.2-2.7-0.3C290.1 637.8 307 595.8 307 550c0-79.5-64.5-144-144-144S19 470.5 19 550c0 45.8 16.9 87.8 59.7 120.2-0.9 0.1-1.8 0.2-2.7 0.3-6.3 0.6-12.6 1.5-18.7 2.8-22.1 4.7-43.1 13.6-62.5 26.8C-24.6 713.1-37 732.6-37 754v134c0 4.4 3.6 8 8 8h55.1c4.4 0 8-3.6 8-8V754c0-12.9 8.7-24.2 21.2-27.2 12.7-3.1 26.4-3.1 39.1 0 12.5 3.1 21.2 14.3 21.2 27.2v134c0 4.4 3.6 8 8 8H179c4.4 0 8-3.6 8-8V754c0-21.4-12.4-40.9-31.8-54.1z" fill="currentColor" p-id="15429"></path>
  <path d="M163 550c0-44.2 35.8-80 80-80s80 35.8 80 80-35.8 80-80 80-80-35.8-80-80z" fill="currentColor" p-id="15430"></path>
  <path d="M507.2 699.9c-19.4-13.2-40.4-22.1-62.5-26.8-6.1-1.3-12.4-2.2-18.7-2.8-0.9-0.1-1.8-0.2-2.7-0.3C466.1 637.8 483 595.8 483 550c0-79.5-64.5-144-144-144s-144 64.5-144 144c0 45.8 16.9 87.8 59.7 120.2-0.9 0.1-1.8 0.2-2.7 0.3-6.3 0.6-12.6 1.5-18.7 2.8-22.1 4.7-43.1 13.6-62.5 26.8C151.4 713.1 139 732.6 139 754v134c0 4.4 3.6 8 8 8h55.1c4.4 0 8-3.6 8-8V754c0-12.9 8.7-24.2 21.2-27.2 12.7-3.1 26.4-3.1 39.1 0 12.5 3.1 21.2 14.3 21.2 27.2v134c0 4.4 3.6 8 8 8H355c4.4 0 8-3.6 8-8V754c0-21.4-12.4-40.9-31.8-54.1z" fill="currentColor" p-id="15431"></path>
  <path d="M339 550c0-44.2 35.8-80 80-80s80 35.8 80 80-35.8 80-80 80-80-35.8-80-80z" fill="currentColor" p-id="15432"></path>
</svg>
